<?xml version="1.0" encoding="UTF-8" standalone="no"?>
<!-- Created with Inkscape (http://www.inkscape.org/) -->

<svg
   xmlns:dc="http://purl.org/dc/elements/1.1/"
   xmlns:cc="http://creativecommons.org/ns#"
   xmlns:rdf="http://www.w3.org/1999/02/22-rdf-syntax-ns#"
   xmlns:svg="http://www.w3.org/2000/svg"
   xmlns="http://www.w3.org/2000/svg"
   xmlns:sodipodi="http://sodipodi.sourceforge.net/DTD/sodipodi-0.dtd"
   xmlns:inkscape="http://www.inkscape.org/namespaces/inkscape"
   width="259pt"
   height="150pt"
   viewBox="0 0 91.369447 52.916666"
   version="1.1"
   id="svg3744"
   inkscape:version="0.92.4 (5da689c313, 2019-01-14)"
   sodipodi:docname="logo.svg">
  <defs
     id="defs3738">
    <linearGradient
       id="linearGradient3778"
       spreadMethod="pad"
       gradientTransform="matrix(800,0,0,-800,0,400)"
       gradientUnits="userSpaceOnUse"
       y2="0"
       x2="1"
       y1="0"
       x1="0">
      <stop
         id="stop3770"
         offset="0"
         style="stop-opacity:1;stop-color:#e9e9e9" />
      <stop
         id="stop3772"
         offset="0.119444"
         style="stop-opacity:1;stop-color:#ffffff" />
      <stop
         id="stop3774"
         offset="0.877503"
         style="stop-opacity:1;stop-color:#ffffff" />
      <stop
         id="stop3776"
         offset="1"
         style="stop-opacity:1;stop-color:#e9e9e9" />
    </linearGradient>
    <clipPath
       id="clipPath3788"
       clipPathUnits="userSpaceOnUse">
      <path
         inkscape:connector-curvature="0"
         id="path3786"
         d="M 0,800 H 800 V 0 H 0 Z" />
    </clipPath>
    <radialGradient
       id="radialGradient3930"
       spreadMethod="pad"
       gradientTransform="matrix(99.851814,0,0,-13.987243,241.35742,426.69336)"
       gradientUnits="userSpaceOnUse"
       r="1"
       cy="0"
       cx="0"
       fy="0"
       fx="0">
      <stop
         id="stop3926"
         offset="0"
         style="stop-opacity:1;stop-color:#c2c2c2" />
      <stop
         id="stop3928"
         offset="1"
         style="stop-opacity:1;stop-color:#ffffff" />
    </radialGradient>
    <radialGradient
       id="radialGradient3950"
       spreadMethod="pad"
       gradientTransform="matrix(99.852158,0,0,-13.98729,558.64258,426.69336)"
       gradientUnits="userSpaceOnUse"
       r="1"
       cy="0"
       cx="0"
       fy="0"
       fx="0">
      <stop
         id="stop3946"
         offset="0"
         style="stop-opacity:1;stop-color:#c2c2c2" />
      <stop
         id="stop3948"
         offset="1"
         style="stop-opacity:1;stop-color:#ffffff" />
    </radialGradient>
    <radialGradient
       id="radialGradient3970"
       spreadMethod="pad"
       gradientTransform="matrix(99.851814,0,0,-13.987243,241.35742,76.640625)"
       gradientUnits="userSpaceOnUse"
       r="1"
       cy="0"
       cx="0"
       fy="0"
       fx="0">
      <stop
         id="stop3966"
         offset="0"
         style="stop-opacity:1;stop-color:#c2c2c2" />
      <stop
         id="stop3968"
         offset="1"
         style="stop-opacity:1;stop-color:#ffffff" />
    </radialGradient>
    <radialGradient
       id="radialGradient3990"
       spreadMethod="pad"
       gradientTransform="matrix(99.852158,0,0,-13.98729,558.64258,76.640625)"
       gradientUnits="userSpaceOnUse"
       r="1"
       cy="0"
       cx="0"
       fy="0"
       fx="0">
      <stop
         id="stop3986"
         offset="0"
         style="stop-opacity:1;stop-color:#c2c2c2" />
      <stop
         id="stop3988"
         offset="1"
         style="stop-opacity:1;stop-color:#ffffff" />
    </radialGradient>
    <clipPath
       id="clipPath4000"
       clipPathUnits="userSpaceOnUse">
      <path
         inkscape:connector-curvature="0"
         id="path3998"
         d="M 0,800 H 800 V 0 H 0 Z" />
    </clipPath>
    <clipPath
       id="clipPath4160"
       clipPathUnits="userSpaceOnUse">
      <path
         inkscape:connector-curvature="0"
         id="path4158"
         d="M 0,800 H 800 V 0 H 0 Z" />
    </clipPath>
    <clipPath
       id="clipPath4356"
       clipPathUnits="userSpaceOnUse">
      <path
         inkscape:connector-curvature="0"
         id="path4354"
         d="M 0,800 H 800 V 0 H 0 Z" />
    </clipPath>
    <clipPath
       id="clipPath4468"
       clipPathUnits="userSpaceOnUse">
      <path
         inkscape:connector-curvature="0"
         id="path4466"
         d="M 0,800 H 800 V 0 H 0 Z" />
    </clipPath>
  </defs>
  <sodipodi:namedview
     id="base"
     pagecolor="#ffffff"
     bordercolor="#666666"
     borderopacity="1.0"
     inkscape:pageopacity="0.0"
     inkscape:pageshadow="2"
     inkscape:zoom="1.4"
     inkscape:cx="369.98629"
     inkscape:cy="187.23021"
     inkscape:document-units="mm"
     inkscape:current-layer="g3996"
     showgrid="false"
     inkscape:window-width="1920"
     inkscape:window-height="1017"
     inkscape:window-x="1272"
     inkscape:window-y="-8"
     inkscape:window-maximized="1"
     units="pt" />
  <metadata
     id="metadata3741">
    <rdf:RDF>
      <cc:Work
         rdf:about="">
        <dc:format>image/svg+xml</dc:format>
        <dc:type
           rdf:resource="http://purl.org/dc/dcmitype/StillImage" />
        <dc:title></dc:title>
      </cc:Work>
    </rdf:RDF>
  </metadata>
  <g
     inkscape:label="Layer 1"
     inkscape:groupmode="layer"
     id="layer1"
     transform="translate(0,-244.08335)">
    <g
       transform="matrix(0.35277777,0,0,-0.35277777,58.460321,287.67658)"
       inkscape:label="31494-NYGZCU"
       id="g3754">
      <g
         id="g3994"
         transform="translate(-126.42858,-152.14286)">
        <g
           clip-path="url(#clipPath4000)"
           id="g3996">
          <g
             id="g5947"
             transform="matrix(-0.7919198,0,0,0.8019958,327.11046,-375.15025)">
            <g
               transform="rotate(90,239.82831,702.9957)"
               id="g5064">
              <g
                 transform="translate(226.3029,570.93911)"
                 id="g4002">
                <path
                   inkscape:connector-curvature="0"
                   id="path4004"
                   style="fill:#ff7543;fill-opacity:1;fill-rule:nonzero;stroke:none"
                   d="M 0,0 H 19.02 L 15.26,-36.572 43.009,10 H 21.948 L 51.901,51.056 3.188,62.927 Z" />
              </g>
            </g>
            <g
               transform="translate(1.2973001,50.26709)"
               id="g5058">
              <g
                 transform="translate(250.4092,640.3447)"
                 id="g4010">
                <path
                   inkscape:connector-curvature="0"
                   id="path4012"
                   style="fill:#3f3a3c;fill-opacity:1;fill-rule:nonzero;stroke:none"
                   d="m 0,0 c -5.261,0 -10.41,1.387 -14.89,4.011 -6.575,3.852 -11.5,10.259 -13.513,17.576 -1.395,5.191 -1.395,10.443 -0.004,15.622 l 0.041,0.154 2.817,6.674 0.028,0.056 c 2.292,4.701 7.429,9.21 11.232,11.41 5.596,3.236 9.076,3.635 15.244,4.178 l 0.106,-0.026 h 0.106 c 5.303,0 10.314,-1.338 14.896,-3.995 l 0.134,-0.06 5.747,-4.432 0.106,-0.101 C 27.548,45.569 30.702,37.958 30.702,30.18 30.702,22.403 27.548,14.791 22.05,9.292 18.732,5.996 14.811,3.588 10.389,2.126 L 7.92,1.084 7.773,1.044 C 5.254,0.352 2.639,0 0,0" />
              </g>
              <g
                 transform="translate(251.3716,702)"
                 id="g4014">
                <path
                   inkscape:connector-curvature="0"
                   id="path4016"
                   style="fill:#ffffff;fill-opacity:1;fill-rule:nonzero;stroke:none"
                   d="m 0,0 -0.211,0.183 c -6.325,-0.557 -10.196,-0.941 -16.207,-4.415 -4.101,-2.373 -9.655,-7.217 -12.162,-12.357 l -0.056,-0.089 -0.049,-0.104 -1.745,-4.128 -0.985,-2.331 -0.124,-0.293 -0.083,-0.308 c -1.5,-5.581 -1.5,-11.239 0,-16.819 2.18,-7.925 7.496,-14.839 14.591,-18.996 4.837,-2.833 10.393,-4.331 16.069,-4.331 2.848,0 5.671,0.38 8.392,1.128 l 0.294,0.081 0.282,0.119 1.228,0.518 1.016,0.429 c 4.73,1.578 8.927,4.165 12.476,7.69 5.943,5.944 9.346,14.159 9.346,22.549 0,8.392 -3.403,16.607 -9.335,22.539 l -0.211,0.211 -0.236,0.182 -5.507,4.255 -0.244,0.189 -0.268,-0.046 C 11.332,-1.279 5.929,0 0.212,0 Z m 0.197,-4.264 c 4.912,-0.015 9.491,-1.254 13.734,-3.715 l 5.507,-4.254 c 5.08,-5.079 7.969,-12.053 7.969,-19.241 0,-7.188 -2.889,-14.159 -7.969,-19.239 -3.102,-3.081 -6.716,-5.284 -10.83,-6.629 -0.805,-0.34 -1.611,-0.68 -2.416,-1.02 -2.339,-0.643 -4.749,-0.961 -7.154,-0.961 -4.784,0 -9.55,1.255 -13.711,3.692 -6.053,3.546 -10.582,9.414 -12.444,16.181 -1.289,4.8 -1.289,9.598 0,14.398 0.91,2.156 1.82,4.312 2.73,6.468 1.934,3.966 6.535,8.233 10.304,10.413 5.236,3.027 8.354,3.386 14.28,3.907" />
              </g>
              <g
                 transform="translate(279.5425,603.0576)"
                 id="g4018">
                <path
                   inkscape:connector-curvature="0"
                   id="path4020"
                   style="fill:#3f3a3c;fill-opacity:1;fill-rule:nonzero;stroke:none"
                   d="m 0,0 c -6.708,0 -13.275,2.72 -18.019,7.463 -4.743,4.744 -7.463,11.311 -7.463,18.018 0,6.707 2.72,13.275 7.463,18.019 1.837,1.838 3.941,3.374 6.266,4.578 0.449,3.441 1.496,7.035 3.251,11.19 2.558,6.847 5.936,11.917 10.288,15.406 l 0.854,0.689 c 2.41,1.948 4.688,3.788 7.647,5.16 1.814,0.841 3.526,1.483 5.183,2.104 1.09,0.408 2.179,0.816 3.297,1.282 3.569,1.489 7.863,2.276 12.417,2.276 3.23,0 6.54,-0.401 9.572,-1.16 2.061,-0.516 3.992,-1.225 5.894,-2.165 7.845,-2.191 16.438,-8.603 18.137,-18.107 1.935,-10.819 -0.232,-19.186 -6.625,-25.579 -1.759,-1.757 -3.823,-3.299 -6.061,-4.537 1.087,-2.47 1.653,-5.133 1.653,-7.822 C 53.754,16.101 44.703,7.05 33.99,7.05 29.388,7.05 24.944,8.702 21.403,11.664 20.426,10.145 19.294,8.739 18.018,7.463 13.275,2.72 6.708,0 0,0" />
              </g>
              <g
                 transform="translate(310.7266,691.5752)"
                 id="g4022">
                <path
                   inkscape:connector-curvature="0"
                   id="path4024"
                   style="fill:#ffffff;fill-opacity:1;fill-rule:nonzero;stroke:none"
                   d="m 0,0 c -4.859,0 -9.464,-0.849 -13.315,-2.456 -1.066,-0.443 -2.111,-0.836 -3.218,-1.251 -1.697,-0.636 -3.451,-1.293 -5.345,-2.171 -3.221,-1.493 -5.718,-3.511 -8.132,-5.463 l -0.848,-0.683 c -4.669,-3.744 -8.273,-9.111 -11.015,-16.408 -1.618,-3.846 -2.659,-7.253 -3.201,-10.517 -2.119,-1.216 -4.055,-2.696 -5.779,-4.419 -5.177,-5.178 -8.146,-12.347 -8.146,-19.668 0,-7.321 2.969,-14.49 8.146,-19.668 5.179,-5.177 12.348,-8.147 19.669,-8.147 7.322,0 14.491,2.97 19.667,8.147 0.807,0.806 1.56,1.66 2.258,2.556 3.57,-2.36 7.754,-3.652 12.065,-3.652 5.841,0 11.374,2.315 15.578,6.518 4.204,4.204 6.519,9.737 6.519,15.579 0,2.323 -0.377,4.628 -1.107,6.828 1.757,1.132 3.388,2.44 4.829,3.88 6.975,6.974 9.354,16.016 7.274,27.641 -1.862,10.414 -11.101,17.437 -19.594,19.883 -1.99,0.968 -4.013,1.702 -6.167,2.242 C 6.923,-0.425 3.418,0 0,0 m 0,-4.666 c 3.108,0 6.201,-0.388 9.006,-1.089 2.088,-0.523 3.918,-1.233 5.623,-2.092 7.846,-2.112 15.231,-8.239 16.678,-16.328 1.567,-8.761 0.621,-16.92 -5.979,-23.519 -2.074,-2.072 -4.709,-3.889 -7.569,-5.153 1.57,-2.608 2.479,-5.642 2.479,-8.856 0,-9.503 -7.931,-17.432 -17.432,-17.432 -5.196,0 -9.918,2.373 -13.134,6.077 -1.122,-2.337 -2.631,-4.491 -4.487,-6.347 -4.322,-4.322 -10.254,-6.78 -16.369,-6.78 -6.115,0 -12.047,2.458 -16.37,6.78 -4.321,4.322 -6.779,10.254 -6.779,16.369 0,6.115 2.458,12.047 6.779,16.369 1.974,1.974 4.286,3.553 6.796,4.692 0.346,3.985 1.572,7.915 3.221,11.818 2.047,5.474 4.977,10.789 9.598,14.494 2.657,2.131 4.994,4.148 8.022,5.552 2.913,1.35 5.568,2.17 8.397,3.35 3.478,1.45 7.512,2.095 11.52,2.095" />
              </g>
              <g
                 transform="translate(180.9048,677.6597)"
                 id="g4026">
                <path
                   inkscape:connector-curvature="0"
                   id="path4028"
                   style="fill:#3f3a3c;fill-opacity:1;fill-rule:nonzero;stroke:none"
                   d="m 0,0 c -5.666,0 -11.213,2.298 -15.22,6.305 -4.007,4.005 -6.304,9.553 -6.304,15.22 0,5.666 2.297,11.214 6.304,15.22 4.005,4.006 9.553,6.304 15.22,6.304 2.256,0 4.538,-0.371 6.708,-1.084 2.772,5.368 7.689,9.411 13.529,11.016 1.848,0.509 3.765,0.767 5.698,0.767 5.767,0 11.388,-2.314 15.423,-6.349 2.679,-2.697 4.554,-5.915 5.58,-9.569 1.033,-3.845 1.033,-7.719 0.006,-11.538 l -0.026,-0.095 -0.03,-0.086 c -1.031,-3.606 -2.893,-6.782 -5.537,-9.444 -2.698,-2.681 -5.912,-4.553 -9.561,-5.577 -1.928,-0.518 -3.862,-0.777 -5.772,-0.777 -1.911,0 -3.845,0.259 -5.749,0.77 -0.417,0.118 -0.832,0.248 -1.244,0.39 C 18.021,9.563 16.747,7.831 15.22,6.304 11.213,2.298 5.666,0 0,0" />
              </g>
              <g
                 transform="translate(206.8398,733.7402)"
                 id="g4030">
                <path
                   inkscape:connector-curvature="0"
                   id="path4032"
                   style="fill:#ffffff;fill-opacity:1;fill-rule:nonzero;stroke:none"
                   d="m 0,0 c -2.142,0 -4.268,-0.286 -6.317,-0.85 -5.846,-1.608 -10.857,-5.417 -14.032,-10.523 -1.835,0.445 -3.718,0.674 -5.586,0.674 -6.281,0 -12.43,-2.547 -16.87,-6.988 -4.44,-4.439 -6.987,-10.588 -6.987,-16.869 0,-6.281 2.547,-12.43 6.987,-16.87 4.441,-4.44 10.59,-6.988 16.87,-6.988 6.28,0 12.429,2.548 16.87,6.989 1.235,1.235 2.322,2.591 3.252,4.057 1.953,-0.486 3.934,-0.732 5.896,-0.732 2.114,0 4.251,0.286 6.353,0.85 l 0.024,0.007 0.025,0.007 c 4.036,1.132 7.591,3.203 10.564,6.157 2.927,2.946 4.979,6.434 6.124,10.39 l 0.038,0.106 0.051,0.189 c 1.134,4.221 1.134,8.502 0,12.724 l -0.007,0.024 -0.007,0.025 c -1.134,4.041 -3.208,7.6 -6.164,10.578 C 12.604,-2.563 6.381,0 0,0 m 0,-4.666 c 5.093,0 10.11,-2.001 13.773,-5.665 2.401,-2.418 4.062,-5.268 4.983,-8.55 0.923,-3.434 0.923,-6.869 0,-10.302 -0.006,-0.018 -0.013,-0.033 -0.019,-0.049 -0.92,-3.277 -2.578,-6.123 -4.976,-8.537 -2.413,-2.398 -5.259,-4.056 -8.536,-4.975 -1.714,-0.461 -3.428,-0.691 -5.142,-0.691 -1.715,0 -3.43,0.23 -5.144,0.691 -1.059,0.297 -2.068,0.68 -3.038,1.131 -0.959,-2.421 -2.4,-4.649 -4.265,-6.513 -3.583,-3.583 -8.501,-5.622 -13.571,-5.622 -5.069,0 -9.988,2.039 -13.571,5.622 -3.583,3.582 -5.62,8.501 -5.62,13.57 0,5.07 2.037,9.988 5.62,13.571 3.583,3.584 8.502,5.621 13.571,5.621 2.75,0 5.453,-0.603 7.925,-1.724 2.19,5.666 7.03,10.117 12.93,11.74 1.67,0.459 3.379,0.682 5.08,0.682" />
              </g>
              <g
                 transform="translate(246.4097,683.666)"
                 id="g4034">
                <path
                   inkscape:connector-curvature="0"
                   id="path4036"
                   style="fill:#3f3a3c;fill-opacity:1;fill-rule:nonzero;stroke:none"
                   d="m 0,0 c -5.261,0 -10.41,1.387 -14.889,4.011 -6.575,3.851 -11.501,10.257 -13.514,17.575 -1.395,5.192 -1.395,10.443 -0.004,15.621 l 0.041,0.155 2.817,6.674 0.028,0.057 c 2.293,4.701 7.431,9.209 11.233,11.409 5.597,3.237 9.076,3.476 15.245,4.018 l 0.105,-0.186 h 0.106 c 5.304,0 10.315,-1.177 14.897,-3.836 l 0.133,0.02 5.747,-4.39 0.105,-0.082 C 27.549,45.548 30.703,37.947 30.703,30.169 30.703,22.392 27.549,14.784 22.05,9.286 18.732,5.99 14.812,3.585 10.39,2.124 L 7.921,1.083 7.774,1.043 C 5.255,0.351 2.64,0 0,0 Z" />
              </g>
              <g
                 transform="translate(247.373,746)"
                 id="g4038">
                <path
                   inkscape:connector-curvature="0"
                   id="path4040"
                   style="fill:#ffffff;fill-opacity:1;fill-rule:nonzero;stroke:none"
                   d="m 0,0 -0.21,-0.157 c -6.326,-0.556 -10.197,-1.109 -16.209,-4.586 -4.1,-2.372 -9.654,-7.3 -12.162,-12.441 l -0.055,-0.131 -0.05,-0.126 -0.309,-0.736 -2.421,-5.738 -0.124,-0.296 -0.084,-0.31 c -1.498,-5.58 -1.498,-11.238 10e-4,-16.817 2.181,-7.928 7.497,-14.842 14.592,-18.998 4.837,-2.833 10.392,-4.331 16.068,-4.331 2.848,0 5.672,0.38 8.393,1.128 l 0.292,0.081 0.28,0.118 c 0.75,0.315 1.5,0.631 2.249,0.948 4.73,1.579 8.926,4.165 12.474,7.689 5.944,5.944 9.347,14.159 9.347,22.551 0,8.391 -3.403,16.606 -9.336,22.539 l -0.211,0.21 -0.236,0.183 -5.507,4.253 -0.243,0.188 -0.267,0.295 C 11.333,-1.618 5.929,0 0.212,0 Z m 0.198,-4.944 c 4.911,-0.014 9.489,-1.252 13.733,-3.715 l 5.506,-4.254 c 5.081,-5.079 7.97,-12.052 7.97,-19.239 0,-7.189 -2.889,-14.161 -7.97,-19.241 -3.101,-3.08 -6.715,-5.283 -10.829,-6.628 -0.805,-0.341 -1.61,-0.681 -2.416,-1.02 -2.339,-0.643 -4.749,-0.96 -7.155,-0.96 -4.783,0 -9.55,1.253 -13.71,3.69 -6.053,3.546 -10.582,9.414 -12.445,16.182 -1.289,4.799 -1.289,9.597 0,14.397 0.91,2.155 1.821,4.313 2.73,6.468 1.935,3.966 6.536,8.233 10.305,10.413 5.236,3.028 8.354,3.387 14.281,3.907" />
              </g>
              <g
                 transform="translate(301.6953,620.3496)"
                 id="g4042">
                <path
                   inkscape:connector-curvature="0"
                   id="path4044"
                   style="fill:#3f3a3c;fill-opacity:1;fill-rule:nonzero;stroke:none"
                   d="m 0,0 c -5.23,0 -10.412,2.054 -14.218,5.636 -0.86,0.81 -1.648,1.692 -2.358,2.638 C -20.282,5.925 -24.481,4.71 -28.854,4.577 -29.099,4.57 -29.34,4.65 -29.583,4.65 h -0.003 c -13.218,0 -24.295,10.659 -24.694,23.86 -0.198,6.514 2.204,12.727 6.761,17.57 4.558,4.842 10.656,7.596 17.171,7.793 0.245,0.007 0.489,0.001 0.733,0.001 9.346,0 17.948,-5.463 22.119,-13.813 2.197,0.852 4.53,1.329 6.862,1.398 0.207,0.007 0.414,0.009 0.622,0.009 5.229,0 10.41,-2.055 14.214,-5.636 3.975,-3.741 6.349,-9.015 6.514,-14.47 C 20.881,15.907 18.83,10.498 15.09,6.523 11.347,2.548 6.072,0.174 0.619,0.009 0.413,0.003 0.207,0 0,0" />
              </g>
              <g
                 transform="translate(272.0801,676.5454)"
                 id="g4046">
                <path
                   inkscape:connector-curvature="0"
                   id="path4048"
                   style="fill:#ffffff;fill-opacity:1;fill-rule:nonzero;stroke:none"
                   d="m 0,0 c -0.268,0 -0.535,-0.004 -0.804,-0.012 -7.137,-0.216 -13.813,-3.251 -18.798,-8.548 -4.985,-5.295 -7.611,-12.144 -7.395,-19.281 0.437,-14.45 12.561,-26.205 27.026,-26.205 0.268,0 0.533,0.004 0.802,0.012 4.105,0.125 8.068,1.185 11.669,3.101 0.414,-0.459 0.847,-0.9 1.297,-1.324 4.298,-4.045 9.915,-6.272 15.818,-6.272 0.23,0 0.46,0.004 0.69,0.011 6.067,0.184 11.934,2.824 16.098,7.245 4.162,4.424 6.443,10.44 6.26,16.508 -0.184,6.07 -2.825,11.937 -7.246,16.099 -4.295,4.043 -9.911,6.269 -15.813,6.27 -0.233,0 -0.464,-0.004 -0.695,-0.011 -1.914,-0.057 -3.829,-0.363 -5.684,-0.9 C 18.379,-5.195 9.545,0 0,0 m 0,-4.665 c 9.422,0 17.714,-6.101 20.937,-14.58 2.484,1.327 5.262,2.089 8.114,2.175 0.184,0.005 0.368,0.008 0.553,0.008 4.666,0 9.211,-1.797 12.615,-5.001 3.537,-3.33 5.634,-7.983 5.781,-12.842 0.146,-4.859 -1.665,-9.631 -4.993,-13.169 -3.331,-3.536 -7.985,-5.634 -12.843,-5.781 -0.183,-0.005 -0.366,-0.008 -0.549,-0.008 -4.667,0 -9.215,1.798 -12.619,5.002 -1.322,1.245 -2.442,2.675 -3.336,4.229 -3.619,-2.831 -8.108,-4.591 -12.97,-4.739 -0.222,-0.007 -0.44,-0.01 -0.661,-0.01 -11.896,0 -22.001,9.721 -22.362,21.681 -0.37,12.183 9.488,22.657 21.67,23.025 0.222,0.007 0.442,0.01 0.663,0.01" />
              </g>
              <g
                 transform="translate(173.7646,631.6812)"
                 id="g4050">
                <path
                   inkscape:connector-curvature="0"
                   id="path4052"
                   style="fill:#3f3a3c;fill-opacity:1;fill-rule:nonzero;stroke:none"
                   d="m 0,0 c -5.261,0 -10.41,1.387 -14.889,4.011 -6.574,3.85 -11.5,10.257 -13.513,17.575 -1.396,5.192 -1.396,10.444 -0.004,15.622 l 0.042,0.155 2.815,6.673 0.028,0.057 c 2.294,4.703 7.431,9.211 11.233,11.409 5.598,3.236 9.077,3.467 15.244,4.01 l 0.106,-0.193 h 0.106 c 5.302,0 10.313,-1.17 14.896,-3.827 l 0.134,0.023 5.747,-4.39 0.106,-0.08 c 5.499,-5.5 8.652,-13.101 8.652,-20.876 0,-7.776 -3.153,-15.383 -8.652,-20.883 C 18.735,5.991 14.813,3.585 10.39,2.124 L 7.921,1.083 7.774,1.043 C 5.255,0.351 2.64,0 0,0 Z" />
              </g>
              <g
                 transform="translate(174.728,694)"
                 id="g4054">
                <path
                   inkscape:connector-curvature="0"
                   id="path4056"
                   style="fill:#ffffff;fill-opacity:1;fill-rule:nonzero;stroke:none"
                   d="m 0,0 -0.211,-0.149 c -6.324,-0.557 -10.195,-1.106 -16.207,-4.582 -4.1,-2.371 -9.654,-7.297 -12.163,-12.439 l -0.055,-0.131 -0.05,-0.125 -1.531,-3.634 -1.198,-2.84 -0.124,-0.295 -0.083,-0.309 c -1.501,-5.581 -1.501,-11.24 0,-16.821 2.181,-7.926 7.496,-14.841 14.591,-18.996 4.837,-2.833 10.393,-4.33 16.068,-4.33 2.848,0 5.672,0.379 8.393,1.128 l 0.293,0.08 0.281,0.119 2.245,0.947 c 4.733,1.579 8.93,4.166 12.478,7.691 5.943,5.944 9.345,14.159 9.345,22.549 0,8.389 -3.402,16.604 -9.335,22.538 l -0.211,0.211 -0.236,0.182 -5.507,4.255 -0.245,0.189 -0.267,0.286 C 11.33,-1.611 5.927,0 0.212,0 Z m 0.197,-4.928 c 4.912,-0.015 9.49,-1.254 13.734,-3.715 l 5.507,-4.254 c 5.079,-5.081 7.969,-12.053 7.969,-19.24 0,-7.189 -2.89,-14.16 -7.969,-19.24 -3.102,-3.082 -6.716,-5.284 -10.831,-6.629 -0.804,-0.34 -1.61,-0.68 -2.415,-1.019 -2.339,-0.644 -4.749,-0.961 -7.155,-0.961 -4.783,0 -9.55,1.254 -13.71,3.691 -6.054,3.545 -10.582,9.414 -12.444,16.181 -1.29,4.8 -1.29,9.598 0,14.398 0.91,2.155 1.82,4.313 2.729,6.467 1.935,3.967 6.536,8.234 10.305,10.413 5.236,3.027 8.354,3.387 14.28,3.908" />
              </g>
              <g
                 transform="translate(316.7715,671.5508)"
                 id="g4058">
                <path
                   inkscape:connector-curvature="0"
                   id="path4060"
                   style="fill:#3f3a3c;fill-opacity:1;fill-rule:nonzero;stroke:none"
                   d="m 0,0 c -3.383,0 -6.768,0.775 -9.789,2.242 -5.299,2.572 -9.446,7.242 -11.377,12.812 -0.009,0.026 -0.018,0.052 -0.027,0.079 -1.855,-0.522 -3.771,-0.786 -5.715,-0.786 -3.189,0 -6.381,0.732 -9.229,2.115 -4.997,2.425 -8.906,6.827 -10.724,12.078 -1.819,5.249 -1.47,11.126 0.957,16.123 2.425,4.998 6.828,8.907 12.078,10.725 2.215,0.768 4.536,1.157 6.897,1.157 3.188,0 6.379,-0.731 9.227,-2.114 4.626,-2.246 8.32,-6.185 10.285,-10.922 0.027,0.01 0.055,0.019 0.082,0.028 2.348,0.814 4.81,1.227 7.314,1.227 3.383,0 6.769,-0.776 9.789,-2.243 5.3,-2.572 9.447,-7.242 11.378,-12.813 C 23.074,24.139 22.703,17.905 20.128,12.604 17.556,7.302 12.886,3.155 7.316,1.227 4.967,0.413 2.505,0 0,0 Z" />
              </g>
              <g
                 transform="translate(290,730.4282)"
                 id="g4062">
                <path
                   inkscape:connector-curvature="0"
                   id="path4064"
                   style="fill:#ffffff;fill-opacity:1;fill-rule:nonzero;stroke:none"
                   d="M 0,0 V -4.665 0 c -3,0 -5.278,-0.433 -7.74,-1.286 -5.829,-2.018 -10.758,-6.36 -13.452,-11.91 -2.695,-5.549 -3.102,-12.075 -1.082,-17.906 2.019,-5.83 6.35,-10.719 11.901,-13.413 3.163,-1.536 6.702,-2.348 10.242,-2.348 1.444,0 2.872,0.132 4.278,0.392 2.354,-5.313 6.575,-9.717 11.819,-12.263 3.336,-1.62 7.073,-2.476 10.806,-2.476 2.765,0 5.484,0.456 8.08,1.355 6.149,2.129 11.305,6.709 14.147,12.564 2.842,5.852 3.251,12.735 1.123,18.885 -2.132,6.152 -6.712,11.309 -12.566,14.148 -3.334,1.62 -7.071,2.477 -10.806,2.477 -2.084,0 -4.143,-0.26 -6.143,-0.773 -2.316,4.397 -5.942,8.022 -10.441,10.206 C 7.003,-0.812 3,0 0,0 m -0.157,-4.665 c 2.821,0 5.636,-0.631 8.207,-1.88 4.463,-2.166 7.919,-6.059 9.54,-10.744 0.138,-0.395 0.256,-0.795 0.365,-1.196 0.726,0.356 1.473,0.674 2.243,0.94 2.119,0.734 4.337,1.098 6.552,1.098 3.015,0 6.023,-0.674 8.77,-2.008 4.766,-2.312 8.459,-6.473 10.193,-11.478 1.732,-5.003 1.403,-10.555 -0.911,-15.321 -2.313,-4.766 -6.475,-8.46 -11.477,-10.193 -2.12,-0.734 -4.338,-1.098 -6.554,-1.098 -3.013,0 -6.022,0.674 -8.769,2.008 -4.766,2.313 -8.458,6.474 -10.192,11.477 -0.267,0.77 -0.479,1.554 -0.648,2.344 -0.383,-0.161 -0.771,-0.317 -1.166,-0.454 -1.983,-0.687 -4.059,-1.028 -6.132,-1.028 -2.822,0 -5.638,0.632 -8.21,1.881 -4.461,2.164 -7.918,6.058 -9.54,10.743 -1.622,4.682 -1.314,9.881 0.852,14.341 2.165,4.462 6.059,7.918 10.743,9.539 1.984,0.688 4.06,1.029 6.134,1.029" />
              </g>
              <g
                 transform="translate(203.6104,602.2314)"
                 id="g4066">
                <path
                   inkscape:connector-curvature="0"
                   id="path4068"
                   style="fill:#3f3a3c;fill-opacity:1;fill-rule:nonzero;stroke:none"
                   d="m 0,0 c -2.879,0 -5.738,0.596 -8.495,1.771 -5.526,2.355 -9.77,6.82 -11.876,12.416 -0.349,-0.017 -0.698,-0.025 -1.046,-0.025 v 0 c -5.311,0 -10.461,1.884 -14.502,5.306 -2.988,2.549 -5.192,5.699 -6.557,9.368 l -0.056,0.153 -1.346,6.148 -0.012,0.149 c -0.321,4.021 0.391,7.905 2.118,11.546 l 0.066,0.139 2.968,4.579 0.096,0.113 c 3.823,4.518 9.398,7.389 15.295,7.878 0.61,0.05 1.229,0.076 1.842,0.076 5.325,0 10.49,-1.889 14.545,-5.321 0.996,-0.849 1.906,-1.766 2.726,-2.745 2.418,2.583 5.7,4.213 9.255,4.509 0.391,0.032 0.778,0.048 1.164,0.048 3.988,0 7.834,-1.738 10.552,-4.663 l 1.798,1.643 0.099,0.074 0.081,0.049 c 4.086,2.831 8.672,4.483 13.633,4.91 l 0.158,0.013 7.166,-0.363 0.161,-0.03 c 4.787,-0.925 9.105,-2.984 12.835,-6.121 l 0.117,-0.098 4.685,-5.124 0.726,-1.249 c 1.014,-1.732 2.063,-3.523 2.787,-5.517 0.322,-0.886 0.709,-2.44 1.152,-4.617 0.309,-1.524 0.496,-2.443 0.565,-3.058 0.773,-4.818 -0.863,-9.813 -2.578,-14.083 L 60.057,17.727 C 57.973,13.427 54.941,9.847 51.046,7.083 L 50.917,6.993 44.849,3.816 44.698,3.762 C 41.61,2.651 38.428,2.087 35.24,2.087 c -1.681,0 -3.398,0.158 -5.1,0.467 L 30.043,2.572 29.949,2.597 C 25.769,3.725 23.645,4.396 20.984,6.047 19.817,6.701 18.698,7.44 17.643,8.251 16.055,6.782 14.235,5.466 12.354,4.436 8.96,1.574 4.584,0 0,0" />
              </g>
              <g
                 transform="translate(182.1055,664.1812)"
                 id="g4070">
                <path
                   inkscape:connector-curvature="0"
                   id="path4072"
                   style="fill:#ffffff;fill-opacity:1;fill-rule:nonzero;stroke:none"
                   d="m 0,0 c -0.677,0 -1.361,-0.028 -2.035,-0.084 -6.509,-0.54 -12.663,-3.709 -16.883,-8.695 l -0.191,-0.226 -0.162,-0.249 -2.804,-4.328 -0.168,-0.258 -0.132,-0.279 c -1.903,-4.014 -2.689,-8.297 -2.335,-12.731 l 0.023,-0.296 0.062,-0.291 0.049,-0.235 0.067,-0.316 0.006,-0.028 0.005,-0.027 0.662,-3.008 0.495,-2.251 0.07,-0.319 0.114,-0.305 c 1.505,-4.047 3.935,-7.521 7.223,-10.325 4.347,-3.681 9.837,-5.75 15.52,-5.865 2.492,-5.472 6.905,-9.82 12.509,-12.208 3.049,-1.3 6.215,-1.958 9.41,-1.958 5.055,0 9.89,1.713 13.677,4.835 1.422,0.794 2.809,1.738 4.098,2.781 0.658,-0.441 1.333,-0.857 2.023,-1.246 3.057,-1.888 5.627,-2.636 9.543,-3.693 l 0.189,-0.051 0.192,-0.034 c 1.84,-0.335 3.697,-0.505 5.518,-0.505 3.458,0 6.906,0.61 10.248,1.812 l 0.3,0.108 0.284,0.149 1.201,0.628 4.586,2.401 0.279,0.146 0.257,0.182 c 4.22,2.993 7.504,6.872 9.761,11.528 l 0.07,0.146 0.06,0.149 c 1.759,4.378 3.647,10.098 2.67,15.605 -0.105,0.753 -0.292,1.674 -0.535,2.871 -0.701,3.45 -1.111,4.578 -1.245,4.949 -0.797,2.193 -1.95,4.163 -2.968,5.899 -0.197,0.339 -0.395,0.675 -0.588,1.011 l -0.255,0.444 -0.346,0.379 -4.411,4.823 -0.206,0.225 -0.233,0.196 c -4.038,3.396 -8.713,5.625 -13.894,6.625 l -0.322,0.062 -0.326,0.017 -3.423,0.173 -3.42,0.173 -0.319,0.016 -0.318,-0.027 C 48.312,-1.964 43.371,-3.736 38.965,-6.77 L 38.803,-6.867 38.717,-6.937 38.609,-7.008 38.34,-7.254 38.257,-7.33 c -2.965,2.424 -6.708,3.821 -10.567,3.821 -0.45,0 -0.907,-0.019 -1.357,-0.056 -3.295,-0.274 -6.387,-1.531 -8.928,-3.546 -0.429,0.422 -0.876,0.831 -1.339,1.226 C 11.576,-2.085 5.875,0 0,0 m 0,-4.665 c 4.746,0 9.398,-1.689 13.038,-4.769 1.687,-1.439 3.088,-3.077 4.203,-4.917 1.912,3.369 5.396,5.797 9.478,6.136 0.326,0.027 0.649,0.041 0.971,0.041 4.235,-0.001 8.093,-2.3 10.255,-5.762 1.181,1.079 2.361,2.158 3.542,3.237 10e-4,10e-4 0.003,0.003 0.006,0.005 3.778,2.631 7.965,4.146 12.559,4.541 2.282,-0.116 4.562,-0.231 6.844,-0.347 4.412,-0.852 8.337,-2.723 11.775,-5.615 1.47,-1.606 2.94,-3.213 4.41,-4.821 1.137,-1.98 2.424,-4.002 3.214,-6.178 0.677,-1.863 1.616,-7.187 1.602,-7.187 -0.001,0 -0.016,0.072 -0.045,0.231 0.807,-4.358 -0.81,-9.204 -2.39,-13.136 -1.919,-3.96 -4.672,-7.212 -8.261,-9.757 -1.929,-1.01 -3.858,-2.02 -5.788,-3.03 -2.847,-1.025 -5.736,-1.536 -8.668,-1.536 -1.549,0 -3.11,0.142 -4.683,0.428 -3.922,1.059 -5.93,1.676 -8.387,3.208 -1.419,0.791 -2.768,1.721 -4.021,2.782 -0.223,0.19 -0.431,0.391 -0.647,0.587 -1.718,-1.914 -4.005,-3.737 -6.476,-5.056 -3.075,-2.671 -6.966,-4.037 -11.026,-4.037 -2.513,0 -5.091,0.523 -7.581,1.584 -5.567,2.373 -9.563,7.077 -11.153,12.762 -0.347,-0.047 -0.694,-0.087 -1.043,-0.117 -0.547,-0.045 -1.094,-0.068 -1.641,-0.068 -4.729,0 -9.367,1.684 -12.994,4.754 -2.686,2.291 -4.646,5.09 -5.877,8.402 -0.385,1.752 -0.772,3.506 -1.157,5.258 -0.039,0.189 -0.079,0.375 -0.119,0.563 -0.289,3.627 0.345,7.081 1.9,10.361 0.935,1.443 1.868,2.884 2.803,4.325 3.437,4.06 8.405,6.62 13.708,7.06 0.55,0.046 1.1,0.068 1.649,0.068" />
              </g>
              <g
                 transform="translate(202.7207,638.4248)"
                 id="g4074">
                <path
                   inkscape:connector-curvature="0"
                   id="path4076"
                   style="fill:#3f3a3c;fill-opacity:1;fill-rule:nonzero;stroke:none"
                   d="m 0,0 c -0.589,0 -1.182,0.018 -1.778,0.054 l -0.153,0.009 -6.817,1.323 -1.316,0.566 c -1.85,0.786 -3.762,1.6 -5.537,2.771 -0.788,0.522 -2.025,1.539 -3.679,3.025 -0.9,0.808 -1.558,1.399 -2.024,1.877 -3.665,3.411 -5.38,8.528 -6.574,13.084 l -0.036,0.158 c -0.889,4.693 -0.589,9.375 0.893,13.915 l 0.048,0.15 2.979,6.168 0.089,0.133 c 2.778,4.178 6.468,7.424 10.969,9.648 l 0.088,0.043 0.092,0.036 c 3.705,1.457 5.969,2.299 9.256,2.573 1.179,0.15 2.368,0.225 3.536,0.225 0.153,0 0.306,-0.001 0.46,-0.004 0.399,2.124 1.075,4.266 1.971,6.216 1.683,7.153 7.466,12.721 15.154,14.567 1.678,0.403 3.398,0.608 5.11,0.608 4.225,0 8.276,-1.204 11.826,-3.498 3.998,3.275 9.016,5.072 14.217,5.072 0.47,0 0.942,-0.015 1.414,-0.045 3.918,-0.266 7.565,-1.482 10.849,-3.616 l 0.137,-0.089 4.745,-4.135 0.098,-0.112 c 2.654,-3.037 4.398,-6.581 5.181,-10.532 l 0.03,-0.152 0.347,-5.446 -0.01,-0.149 C 71.187,48.538 68.422,42.91 63.979,39.001 59.873,35.391 54.595,33.402 49.119,33.402 h -10e-4 c -0.473,0 -0.949,0.015 -1.424,0.046 -1.304,0.088 -2.582,0.281 -3.825,0.578 -0.401,-3.514 -2.065,-6.78 -4.743,-9.137 -2.588,-2.276 -5.945,-3.529 -9.454,-3.529 -0.914,0 -1.818,0.083 -2.705,0.249 L 26.508,19.244 26.46,19.097 c -1.594,-4.75 -4.3,-8.834 -8.048,-12.15 L 18.292,6.841 12.322,2.861 12.174,2.79 C 8.317,0.938 4.222,0 0,0" />
              </g>
              <g
                 transform="translate(251.4946,719.4761)"
                 id="g4078">
                <path
                   inkscape:connector-curvature="0"
                   id="path4080"
                   style="fill:#ffffff;fill-opacity:1;fill-rule:nonzero;stroke:none"
                   d="m 0,0 c -5.184,0 -10.206,-1.618 -14.383,-4.597 -3.574,1.966 -7.604,3.023 -11.66,3.023 -1.895,0 -3.798,-0.226 -5.656,-0.673 -8.47,-2.033 -14.87,-8.166 -16.823,-16.072 -0.667,-1.486 -1.218,-3.07 -1.631,-4.675 -0.787,-0.037 -1.578,-0.106 -2.365,-0.204 -3.579,-0.305 -6.089,-1.237 -9.866,-2.722 l -0.183,-0.072 -0.176,-0.087 c -4.874,-2.408 -8.871,-5.923 -11.879,-10.448 l -0.176,-0.266 -0.14,-0.288 -1.348,-2.792 -1.493,-3.091 -0.137,-0.283 -0.097,-0.298 c -1.605,-4.918 -1.93,-9.99 -0.967,-15.074 l 0.03,-0.158 0.041,-0.157 c 1.199,-4.571 3.098,-10.303 7.181,-14.143 0.186,-0.189 0.364,-0.356 0.521,-0.502 0.41,-0.382 0.975,-0.903 1.594,-1.46 2.62,-2.354 3.621,-3.016 3.949,-3.233 1.956,-1.291 4.058,-2.185 5.913,-2.974 0.357,-0.152 0.713,-0.304 1.064,-0.457 l 0.47,-0.204 0.503,-0.097 0.983,-0.191 5.432,-1.054 0.3,-0.058 0.306,-0.019 c 0.64,-0.038 1.286,-0.058 1.919,-0.058 4.574,0 9.01,1.016 13.184,3.02 l 0.296,0.142 0.272,0.182 2.97,1.979 2.732,1.822 0.265,0.176 0.239,0.212 c 4.058,3.59 6.988,8.012 8.709,13.142 l 0.068,0.202 0.04,0.171 0.024,0.093 0.026,0.133 0.021,0.106 c 0.275,-0.014 0.55,-0.02 0.826,-0.02 4.076,0 7.981,1.46 10.994,4.11 2.483,2.185 4.216,5.037 5.055,8.17 0.598,-0.083 1.201,-0.145 1.809,-0.186 0.536,-0.034 1.066,-0.051 1.588,-0.051 6.045,0 11.869,2.194 16.401,6.179 4.905,4.315 7.957,10.527 8.375,17.045 l 0.019,0.298 -0.019,0.297 -0.176,2.754 -0.152,2.389 -0.02,0.309 -0.06,0.302 c -0.864,4.357 -2.786,8.264 -5.712,11.614 l -0.195,0.223 -0.222,0.196 -0.201,0.179 -0.223,0.196 -0.021,0.019 -0.021,0.019 -1.734,1.507 -2.328,2.025 -0.247,0.215 -0.274,0.178 C 9.913,-1.684 5.891,-0.343 1.581,-0.051 1.045,-0.017 0.519,0 0,0 m 0,-4.665 c 0.421,0 0.843,-0.014 1.265,-0.041 3.523,-0.238 6.765,-1.318 9.727,-3.243 1.354,-1.178 2.709,-2.356 4.063,-3.533 0.144,-0.128 0.288,-0.254 0.431,-0.382 2.394,-2.739 3.944,-5.889 4.65,-9.451 0.11,-1.716 0.218,-3.43 0.328,-5.144 -0.34,-5.309 -2.804,-10.324 -6.799,-13.839 -3.677,-3.233 -8.448,-5.018 -13.32,-5.018 -0.425,0 -0.85,0.013 -1.275,0.041 -2.213,0.149 -4.315,0.629 -6.307,1.442 0.473,-3.846 -0.877,-7.872 -3.952,-10.578 -2.251,-1.98 -5.084,-2.948 -7.913,-2.948 -1.537,0 -3.072,0.286 -4.512,0.851 -0.303,-1.57 -0.608,-3.14 -0.914,-4.71 0,-0.002 -0.001,-0.004 -0.002,-0.007 -1.465,-4.365 -3.924,-8.076 -7.378,-11.132 -1.901,-1.268 -3.8,-2.534 -5.701,-3.801 -3.556,-1.707 -7.276,-2.561 -11.165,-2.561 -0.542,0 -1.088,0.017 -1.637,0.05 -2.138,0.415 -4.276,0.83 -6.415,1.245 -2.093,0.91 -4.331,1.767 -6.263,3.043 -1.655,1.094 -5.59,4.818 -5.57,4.817 0.002,0 0.057,-0.05 0.174,-0.159 -3.246,3.019 -4.836,7.873 -5.911,11.973 -0.819,4.322 -0.546,8.575 0.818,12.757 0.947,1.961 1.894,3.922 2.842,5.883 2.56,3.851 5.914,6.8 10.06,8.848 3.78,1.487 5.761,2.189 8.646,2.423 1.089,0.141 2.188,0.214 3.292,0.214 0.53,0 1.063,-0.018 1.594,-0.052 0.293,-0.018 0.581,-0.055 0.871,-0.084 0.238,2.559 0.988,5.386 2.186,7.919 1.419,6.44 6.596,11.407 13.478,13.059 1.523,0.366 3.052,0.544 4.566,0.544 4.338,0 8.537,-1.461 11.997,-4.143 0.249,0.245 0.505,0.485 0.768,0.715 3.664,3.224 8.42,5.002 13.278,5.002" />
              </g>
              <g
                 transform="translate(288.2065,651.1685)"
                 id="g4082">
                <path
                   inkscape:connector-curvature="0"
                   id="path4084"
                   style="fill:#3f3a3c;fill-opacity:1;fill-rule:nonzero;stroke:none"
                   d="m 0,0 c -9.669,0 -18.397,5.727 -22.427,14.48 -2.22,-0.784 -4.566,-1.193 -6.898,-1.193 -5.457,0 -10.801,2.213 -14.66,6.073 -3.86,3.859 -6.073,9.202 -6.073,14.661 0,5.457 2.213,10.801 6.073,14.661 3.859,3.859 9.202,6.071 14.66,6.071 5.459,0 10.803,-2.212 14.661,-6.071 0.835,-0.836 1.597,-1.742 2.277,-2.708 3.775,2.235 8.012,3.405 12.387,3.405 13.383,0 24.69,-11.306 24.69,-24.689 C 24.69,11.307 13.383,0 0,0" />
              </g>
              <g
                 transform="translate(258.8818,708.2544)"
                 id="g4086">
                <path
                   inkscape:connector-curvature="0"
                   id="path4088"
                   style="fill:#ffffff;fill-opacity:1;fill-rule:nonzero;stroke:none"
                   d="m 0,0 c -6.072,0 -12.017,-2.462 -16.31,-6.755 -4.294,-4.294 -6.756,-10.239 -6.756,-16.31 0,-6.073 2.462,-12.018 6.756,-16.311 4.293,-4.293 10.238,-6.755 16.31,-6.755 1.914,0 3.835,0.246 5.703,0.726 4.729,-8.538 13.724,-14.013 23.622,-14.013 7.14,0 13.905,2.832 19.048,7.974 5.142,5.143 7.975,11.907 7.975,19.048 0,7.14 -2.833,13.905 -7.975,19.047 -5.143,5.143 -11.908,7.975 -19.048,7.975 -4.107,0 -8.099,-0.939 -11.757,-2.745 -0.401,0.471 -0.82,0.926 -1.257,1.364 C 12.018,-2.462 6.073,0 0,0 m 0,-4.665 c 4.861,0 9.576,-1.953 13.011,-5.389 1.284,-1.284 2.361,-2.747 3.206,-4.328 3.703,2.72 8.243,4.343 13.108,4.343 12.187,0 22.357,-10.17 22.357,-22.357 0,-12.187 -10.17,-22.357 -22.357,-22.357 -9.699,0 -18.114,6.443 -21.149,15.215 -2.524,-1.251 -5.323,-1.928 -8.176,-1.928 -4.861,0 -9.576,1.954 -13.011,5.389 -3.436,3.435 -5.39,8.151 -5.39,13.012 0,4.86 1.954,9.575 5.39,13.011 3.435,3.436 8.15,5.389 13.011,5.389" />
              </g>
              <g
                 transform="translate(231.98,634.9258)"
                 id="g4090">
                <path
                   inkscape:connector-curvature="0"
                   id="path4092"
                   style="fill:#3f3a3c;fill-opacity:1;fill-rule:nonzero;stroke:none"
                   d="m 0,0 c -3.643,0 -7.289,1.018 -10.266,2.866 -7.349,4.561 -12.441,12.399 -13.621,20.967 -0.832,6.039 -0.622,10.662 0.64,14.137 0.097,0.264 0.2,0.592 0.318,0.962 0.551,1.723 1.382,4.328 2.991,6.438 1.62,2.129 4.666,3.505 7.758,3.505 1.264,0 2.436,-0.229 3.483,-0.68 4.323,-1.863 6.093,-5.631 7.536,-9.33 l 0.169,-0.43 c 0.13,-0.331 0.262,-0.668 0.392,-1.012 1.017,1.644 2.181,3.23 3.556,4.569 1.693,1.65 3.379,3.222 5.381,4.321 0.674,0.37 2.056,1.018 2.548,1.248 1.302,0.788 2.697,1.258 4.15,1.397 1.101,0.149 2.174,0.224 3.193,0.224 5.165,0 9.348,-1.835 13.153,-5.773 1.712,-1.41 3.636,-3.232 5.066,-6.032 l -0.021,-0.01 c 0.245,-0.424 0.519,-0.965 0.866,-1.652 0.837,-1.658 1.068,-2.116 1.132,-2.486 0.034,-0.076 0.452,-1.013 0.628,-1.402 1.061,-2.348 2.158,-4.777 2.615,-7.571 0.446,-2.725 0.886,-5.633 0.933,-8.597 C 42.657,11.92 41.194,8.343 38.479,5.585 35.736,2.8 31.982,1.203 28.18,1.203 23.167,1.203 18.674,3.797 16.073,7.943 13.059,4.583 9.864,2.395 6.036,1.018 4.16,0.343 2.129,0 0,0" />
              </g>
              <g
                 transform="translate(271.3452,658.8047)"
                 id="g4094">
                <path
                   inkscape:connector-curvature="0"
                   id="path4096"
                   style="fill:#3f3a3c;fill-opacity:1;fill-rule:nonzero;stroke:none"
                   d="m 0,0 c -0.479,2.926 -1.785,5.491 -2.973,8.178 -0.337,0.761 -0.701,1.503 -1.095,2.237 2.494,-4.655 -1.568,3.276 -0.924,2.014 -1.162,2.278 -2.744,3.884 -4.579,5.385 -3.826,4.004 -8.23,5.803 -14.494,4.948 -1.178,-0.106 -2.279,-0.494 -3.309,-1.138 -0.862,-0.4 -2.012,-0.95 -2.532,-1.234 -1.791,-0.984 -3.405,-2.515 -4.876,-3.948 -2.352,-2.289 -4.081,-5.501 -5.573,-8.468 -0.441,1.144 -0.804,2.269 -1.318,3.393 -0.029,0.083 -0.056,0.166 -0.092,0.27 -0.277,0.852 -0.609,1.667 -0.934,2.502 -1.304,3.343 -2.778,6.523 -6.287,8.035 -2.721,1.173 -6.755,0.146 -8.463,-2.097 -1.708,-2.241 -2.45,-5.35 -2.97,-6.783 -1.403,-3.858 -1.073,-9.023 -0.522,-13.021 1.087,-7.897 5.787,-15.113 12.54,-19.304 4.116,-2.555 9.714,-3.28 14.282,-1.635 4.943,1.778 8.361,5.005 11.38,9.128 1.496,-5.033 5.966,-8.806 11.553,-8.806 6.512,0 12.19,5.499 12.088,12.088 C 0.858,-5.484 0.448,-2.734 0,0" />
              </g>
              <g
                 transform="translate(250.2075,686.4404)"
                 id="g4098">
                <path
                   inkscape:connector-curvature="0"
                   id="path4100"
                   style="fill:#ffffff;fill-opacity:1;fill-rule:nonzero;stroke:none"
                   d="M 0,0 V -4.666 0 c -1.108,0 -2.272,-0.08 -3.461,-0.238 -1.746,-0.175 -3.418,-0.73 -4.976,-1.653 -0.625,-0.292 -1.889,-0.889 -2.573,-1.264 -2.26,-1.241 -4.149,-3.001 -5.89,-4.698 -0.475,-0.462 -0.926,-0.947 -1.353,-1.45 -1.328,2.883 -3.504,6.296 -7.748,8.125 -1.341,0.578 -2.823,0.871 -4.407,0.871 -3.852,0 -7.536,-1.695 -9.615,-4.425 -1.852,-2.429 -2.756,-5.265 -3.355,-7.142 -0.108,-0.336 -0.201,-0.634 -0.289,-0.875 -1.395,-3.839 -1.643,-8.828 -0.758,-15.251 1.274,-9.248 6.77,-17.708 14.701,-22.631 3.342,-2.074 7.425,-3.216 11.496,-3.216 2.4,0 4.697,0.389 6.827,1.156 3.769,1.355 6.712,3.411 9.017,5.556 3.09,-3.444 7.504,-5.51 12.336,-5.51 4.423,0 8.783,1.852 11.962,5.079 3.157,3.207 4.858,7.378 4.79,11.746 -0.049,3.123 -0.502,6.128 -0.962,8.938 -0.508,3.098 -1.668,5.668 -2.791,8.154 -0.174,0.384 -0.347,0.769 -0.519,1.157 -0.007,0.016 -0.015,0.032 -0.022,0.049 -0.182,0.632 -0.559,1.38 -1.263,2.772 -0.307,0.609 -0.586,1.162 -0.868,1.652 l 0.023,0.012 c -1.601,3.138 -3.785,5.221 -5.564,6.697 C 10.542,-2.091 5.718,0 0,0 m 0,-4.666 c 4.76,0 8.366,-1.806 11.567,-5.156 1.835,-1.5 3.417,-3.107 4.579,-5.385 -0.049,0.096 -0.07,0.139 -0.07,0.139 0.001,0 1.857,-3.632 1.811,-3.632 -0.014,0 -0.237,0.396 -0.803,1.452 -0.005,0.009 -0.01,0.018 -0.015,0.027 0.005,-0.009 0.01,-0.018 0.015,-0.027 0.389,-0.726 0.749,-1.458 1.081,-2.21 1.188,-2.687 2.494,-5.252 2.973,-8.178 0.447,-2.734 0.858,-5.484 0.902,-8.256 0.102,-6.588 -5.577,-12.087 -12.088,-12.087 -5.588,0 -10.057,3.772 -11.554,8.805 -3.019,-4.123 -6.436,-7.35 -11.379,-9.128 -1.654,-0.595 -3.442,-0.88 -5.247,-0.88 -3.18,0 -6.41,0.885 -9.036,2.515 -6.752,4.191 -11.452,11.408 -12.54,19.304 -0.55,3.998 -0.88,9.163 0.522,13.021 0.521,1.433 1.262,4.542 2.971,6.783 1.222,1.605 3.633,2.587 5.903,2.587 0.904,-10e-4 1.785,-0.156 2.56,-0.49 3.509,-1.512 4.982,-4.691 6.286,-8.035 0.326,-0.835 0.658,-1.65 0.935,-2.502 0.036,-0.104 0.063,-0.187 0.091,-0.27 0.515,-1.124 0.878,-2.249 1.319,-3.393 1.492,2.968 3.221,6.179 5.572,8.468 1.472,1.434 3.085,2.965 4.877,3.948 0.519,0.285 1.669,0.834 2.532,1.234 1.03,0.644 2.131,1.032 3.309,1.138 1.024,0.14 1.997,0.209 2.927,0.208" />
              </g>
              <g
                 transform="translate(188.7886,627.27)"
                 id="g4102">
                <path
                   inkscape:connector-curvature="0"
                   id="path4104"
                   style="fill:none;stroke:#ffffff;stroke-width:4.66499996;stroke-linecap:round;stroke-linejoin:miter;stroke-miterlimit:10;stroke-dasharray:none;stroke-opacity:1"
                   d="m 0,0 c -1.049,-2.169 -1.638,-4.602 -1.638,-7.173 0,-9.111 7.385,-16.495 16.495,-16.495 9.11,0 16.495,7.384 16.495,16.495 0,1.094 -0.109,2.162 -0.312,3.196" />
              </g>
              <g
                 transform="translate(299.0864,619.9624)"
                 id="g4106">
                <path
                   inkscape:connector-curvature="0"
                   id="path4108"
                   style="fill:none;stroke:#ffffff;stroke-width:4.66499996;stroke-linecap:round;stroke-linejoin:miter;stroke-miterlimit:10;stroke-dasharray:none;stroke-opacity:1"
                   d="m 0,0 c 5.899,-9.787 19.788,-11.629 28.035,-3.75 7.947,7.59 7.218,20.904 -1.541,27.552 -1.183,0.899 -2.477,1.652 -3.845,2.237" />
              </g>
              <g
                 transform="translate(335.4707,680.5176)"
                 id="g4110">
                <path
                   inkscape:connector-curvature="0"
                   id="path4112"
                   style="fill:none;stroke:#ffffff;stroke-width:4.66499996;stroke-linecap:round;stroke-linejoin:miter;stroke-miterlimit:10;stroke-dasharray:none;stroke-opacity:1"
                   d="m 0,0 c 5.963,8.122 5.305,19.997 -2.136,26.971 -7.715,7.231 -20.243,7.485 -28.024,0.228" />
              </g>
              <g
                 transform="translate(207.3989,671.5498)"
                 id="g4114">
                <path
                   inkscape:connector-curvature="0"
                   id="path4116"
                   style="fill:none;stroke:#ffffff;stroke-width:4.66499996;stroke-linecap:round;stroke-linejoin:miter;stroke-miterlimit:10;stroke-dasharray:none;stroke-opacity:1"
                   d="M 0,0 C -4.099,3.438 -9.499,1.99 -13.398,-1.023" />
              </g>
              <g
                 transform="translate(163.5771,670.207)"
                 id="g4118">
                <path
                   inkscape:connector-curvature="0"
                   id="path4120"
                   style="fill:none;stroke:#ffffff;stroke-width:4.66499996;stroke-linecap:round;stroke-linejoin:miter;stroke-miterlimit:10;stroke-dasharray:none;stroke-opacity:1"
                   d="M 0,0 C 0,0 2.075,-5.901 10.812,-11.233" />
              </g>
              <g
                 transform="translate(191.731,725.248)"
                 id="g4122">
                <path
                   inkscape:connector-curvature="0"
                   id="path4124"
                   style="fill:none;stroke:#ffffff;stroke-width:4.66499996;stroke-linecap:round;stroke-linejoin:miter;stroke-miterlimit:10;stroke-dasharray:none;stroke-opacity:1"
                   d="M 0,0 C -5.775,-5.332 -6.827,-14.699 -3.272,-20.715" />
              </g>
              <g
                 transform="translate(271.5449,668.5273)"
                 id="g4126">
                <path
                   inkscape:connector-curvature="0"
                   id="path4128"
                   style="fill:none;stroke:#ffffff;stroke-width:4.66499996;stroke-linecap:round;stroke-linejoin:miter;stroke-miterlimit:10;stroke-dasharray:none;stroke-opacity:1"
                   d="M 0,0 C 0,0 5.945,13.748 18.998,10.737" />
              </g>
              <g
                 transform="translate(233.4775,675.1118)"
                 id="g4130">
                <path
                   inkscape:connector-curvature="0"
                   id="path4132"
                   style="fill:none;stroke:#ffffff;stroke-width:4.66499996;stroke-linecap:round;stroke-linejoin:miter;stroke-miterlimit:10;stroke-dasharray:none;stroke-opacity:1"
                   d="M 0,0 C -3.49,-3.785 -5.405,-12.829 -4.538,-18.458" />
              </g>
              <g
                 transform="translate(246.3677,640.8687)"
                 id="g4134">
                <path
                   inkscape:connector-curvature="0"
                   id="path4136"
                   style="fill:none;stroke:#ffffff;stroke-width:4.66499996;stroke-linecap:round;stroke-linejoin:miter;stroke-miterlimit:10;stroke-dasharray:none;stroke-opacity:1"
                   d="M 0,0 C 0,0 6.516,4.999 7.183,14.329" />
              </g>
              <g
                 transform="translate(200.7002,638.5366)"
                 id="g4138">
                <path
                   inkscape:connector-curvature="0"
                   id="path4140"
                   style="fill:none;stroke:#ffffff;stroke-width:4.66499996;stroke-linecap:round;stroke-linejoin:miter;stroke-miterlimit:10;stroke-dasharray:none;stroke-opacity:1"
                   d="M 0,0 C 0,0 19.297,-21.186 42.409,-15.854" />
              </g>
              <g
                 transform="translate(248.8848,724.2881)"
                 id="g4142">
                <path
                   inkscape:connector-curvature="0"
                   id="path4144"
                   style="fill:none;stroke:#ffffff;stroke-width:4.66499996;stroke-linecap:round;stroke-linejoin:miter;stroke-miterlimit:10;stroke-dasharray:none;stroke-opacity:1"
                   d="M 0,0 C 0,0 -4.246,-3.902 -5.776,-7.998" />
              </g>
            </g>
          </g>
        </g>
      </g>
    </g>
  </g>
</svg>
